#!OML:ASF X:\für Bonn\!DataBase\2005_08_10_Bjorn_Final\c3d\bjorn.ASF
:FULLY-SPECIFIED
:DEGREES
109
root -27.1505 17.5817 10.8888 -176.518 -232.011 -193.219
lowerback -0.3016 -1.18466 8.63275
upperback 7.0335 -2.08016 4.62398
thorax 7.47195 -0.586654 -0.0666789
lowerneck -6.65345 3.34953 0.141468
upperneck -1.39509 4.57522 -6.3882
head 0.855928 2.22873 -1.8981
rclavicle -1.94809e-014 3.4191e-014
rhumerus -31.2499 7.80013 -92.2461
rradius 89.2878
rwrist -8.37201
rhand -30.3055 24.8166
rfingers 7.12502
rthumb -3.61244 -5.13255
lclavicle -1.94809e-014 3.4191e-014
lhumerus -44.4901 -35.2374 106.741
lradius 48.3975
lwrist 7.33169
lhand -35.0222 -17.4912
lfingers 7.12502
lthumb -8.16615 12.331
rfemur -35.887 -10.1894 26.387
rtibia 58.9149
rfoot -29.9594 14.5345
rtoes -12.5993
lfemur -6.09082 0.388339 -9.21111
ltibia 65.4526
lfoot -6.35346 6.74144
ltoes -27.3921
110
root -26.9891 17.535 11.0311 -177.246 -232.11 -193.708
lowerback 0.0698317 -1.03148 9.04205
upperback 7.12478 -1.84761 4.71556
thorax 7.36918 -0.448193 -0.172556
lowerneck -7.06461 3.32962 0.127818
upperneck -1.0832 4.57775 -6.52499
head 1.03014 2.21417 -1.93283
rclavicle -2.62396e-014 -2.5842e-014
rhumerus -29.5721 8.72167 -92.2315
rradius 90.3417
rwrist -8.50822
rhand -30.1431 24.4384
rfingers 7.12502
rthumb -3.45567 -5.51335
lclavicle -2.62396e-014 -2.5842e-014
lhumerus -44.6252 -34.0691 106.688
lradius 48.0856
lwrist 7.60026
lhand -35.5192 -17.6861
lfingers 7.12502
lthumb -8.6458 12.1169
rfemur -34.5626 -10.1002 26.5627
rtibia 58.8375
rfoot -31.0562 14.2319
rtoes -13.4886
lfemur -7.86412 0.862977 -8.69846
ltibia 68.4607
lfoot -7.01834 6.51215
ltoes -25.0733
111
root -26.823 17.4997 11.1745 -177.922 -232.23 -194.155
lowerback 0.427144 -0.874997 9.4277
upperback 7.16999 -1.60484 4.79367
thorax 7.22778 -0.308598 -0.281932
lowerneck -7.35508 3.29286 0.0657491
upperneck -0.835632 4.55597 -6.61218
head 1.16002 2.19133 -1.94627
rclavicle 4.37326e-014 1.90833e-014
rhumerus -27.901 9.7485 -92.1166
rradius 91.2923
rwrist -8.61614
rhand -29.9893 24.6493
rfingers 7.12502
rthumb -3.30708 -5.30482
lclavicle 4.37326e-014 1.90833e-014
lhumerus -44.9894 -32.8178 106.618
lradius 48.0319
lwrist 7.74361
lhand -36.0614 -17.6691
lfingers 7.12502
lthumb -9.1691 12.1115
rfemur -33.1622 -10.0635 26.7142
rtibia 58.6082
rfoot -32.1118 13.892
rtoes -14.6159
lfemur -9.68596 1.3342 -8.25655
ltibia 71.2258
lfoot -7.69583 6.49651
ltoes -23.0943
112
root -26.6554 17.4718 11.319 -178.491 -232.345 -194.547
lowerback 0.680557 -0.68595 9.7424
upperback 7.19323 -1.32718 4.86028
thorax 7.12847 -0.155669 -0.365854
lowerneck -7.55103 3.23885 0.0823619
upperneck -0.627278 4.5028 -6.76033
head 1.26471 2.15398 -1.99641
rclavicle 3.29983e-014 4.05521e-014
rhumerus -26.2884 10.6296 -91.9612
rradius 92.2873
rwrist -8.65136
rhand -29.7303 25.0347
rfingers 7.12502
rthumb -3.05704 -4.92312
lclavicle 3.29983e-014 4.05521e-014
lhumerus -45.5128 -31.6264 106.564
lradius 48.1943
lwrist 7.90843
lhand -36.6991 -17.521
lfingers 7.12502
lthumb -9.78437 12.2317
rfemur -31.7695 -9.99111 26.8423
rtibia 58.2442
rfoot -33.1017 13.4326
rtoes -16.0838
lfemur -11.6218 1.85589 -7.88555
ltibia 73.7597
lfoot -8.64173 6.47911
ltoes -22.2576
113
root -26.4858 17.4511 11.462 -178.806 -232.488 -194.751
lowerback 0.786558 -0.464834 9.95705
upperback 7.18452 -1.02083 4.87065
thorax 7.08315 0.00704084 -0.455752
lowerneck -7.70058 3.14779 0.0941231
upperneck -0.399656 4.39853 -6.83125
head 1.36327 2.09218 -2.02346
rclavicle 6.48038e-014 -5.00937e-014
rhumerus -24.7944 11.2784 -91.8269
rradius 93.2087
rwrist -8.44419
rhand -29.5782 25.7343
rfingers 7.12502
rthumb -2.9101 -4.22563
lclavicle 6.48038e-014 -5.00937e-014
lhumerus -46.2102 -30.5171 106.484
lradius 48.6091
lwrist 8.13671
lhand -37.2503 -17.6965
lfingers 7.12502
lthumb -10.3161 12.0305
rfemur -30.4242 -9.87436 26.8541
rtibia 57.7491
rfoot -33.9369 13.0322
rtoes -17.1187
lfemur -13.7448 2.37259 -7.71753
ltibia 76.0869
lfoot -9.70312 6.12255
ltoes -20.8238
114
root -26.3162 17.4363 11.6056 -178.976 -232.621 -194.864
lowerback 0.779466 -0.198692 10.0484
upperback 7.15755 -0.667103 4.8876
thorax 7.08862 0.185971 -0.469573
lowerneck -7.69338 3.02992 0.0574958
upperneck -0.267231 4.25145 -6.81441
head 1.3978 2.01571 -2.01712
rclavicle 6.67916e-014 -2.62396e-014
rhumerus -23.4031 11.8321 -91.6564
rradius 93.8755
rwrist -8.02749
rhand -29.606 26.6819
rfingers 7.12502
rthumb -2.93695 -3.27758
lclavicle 6.67916e-014 -2.62396e-014
lhumerus -47.0137 -29.5999 106.492
lradius 49.219
lwrist 8.45478
lhand -37.6756 -17.9509
lfingers 7.12502
lthumb -10.7263 11.7552
rfemur -29.1151 -9.75416 26.8288
rtibia 57.1442
rfoot -34.6736 12.6241
rtoes -18.1692
lfemur -16.0263 2.99245 -7.66493
ltibia 78.2266
lfoot -10.7081 5.66571
ltoes -19.684
115
root -26.1471 17.4246 11.7446 -179.146 -232.775 -194.936
lowerback 0.824476 0.0797703 10.1456
upperback 7.09885 -0.285432 4.85795
thorax 7.032 0.377015 -0.535483
lowerneck -7.53646 2.90147 0.0554198
upperneck -0.175882 4.07866 -6.7297
head 1.39065 1.93102 -1.99727
rclavicle 1.78906e-014 -6.36111e-015
rhumerus -22.1484 12.3656 -91.5477
rradius 94.4096
rwrist -7.66971
rhand -29.6012 27.6203
rfingers 7.12502
rthumb -2.93235 -2.33929
lclavicle 1.78906e-014 -6.36111e-015
lhumerus -47.951 -28.7411 106.506
lradius 49.9144
lwrist 8.74791
lhand -37.9424 -18.073
lfingers 7.12502
lthumb -10.9837 11.6196
rfemur -27.7472 -9.6618 26.7585
rtibia 56.4351
rfoot -35.3295 12.1573
rtoes -19.4758
lfemur -18.3737 3.65021 -7.73298
ltibia 80.1922
lfoot -11.5742 5.32243
ltoes -19.7502
116
root -25.9788 17.4195 11.8824 -179.334 -232.9 -194.945
lowerback 0.954608 0.37443 10.178
upperback 7.02865 0.133619 4.80983
thorax 6.91664 0.580565 -0.585668
lowerneck -7.13294 2.76386 0.0195799
upperneck -0.255373 3.87984 -6.58408
head 1.28164 1.84292 -1.95472
rclavicle 6.83819e-014 1.74931e-014
rhumerus -20.9793 12.9993 -91.509
rradius 94.9434
rwrist -7.38517
rhand -29.8306 28.2144
rfingers 7.12502
rthumb -3.15387 -1.74204
lclavicle 6.83819e-014 1.74931e-014
lhumerus -48.9903 -28.0342 106.578
lradius 50.7181
lwrist 9.17576
lhand -38.0833 -18.0071
lfingers 7.12502
lthumb -11.1197 11.6782
rfemur -26.2602 -9.52282 26.6336
rtibia 55.6182
rfoot -35.9309 11.5314
rtoes -21.3788
lfemur -20.6842 4.32727 -7.93471
ltibia 81.9432
lfoot -12.3983 4.99615
ltoes -20.2684
117
root -25.8096 17.4243 12.0172 -179.403 -233.014 -194.777
lowerback 1.12921 0.69807 10.135
upperback 6.96592 0.600434 4.7018
thorax 6.78732 0.804509 -0.657503
lowerneck -6.81188 2.59427 -0.00887754
upperneck -0.28307 3.64091 -6.38934
head 1.20199 1.73232 -1.89758
rclavicle -3.85642e-014 7.15625e-015
rhumerus -19.809 13.6823 -91.4822
rradius 95.5821
rwrist -7.29003
rhand -30.0394 28.3321
rfingers 7.12502
rthumb -3.35547 -1.62126
lclavicle -3.85642e-014 7.15625e-015
lhumerus -49.9483 -27.4934 106.649
lradius 51.4572
lwrist 9.70262
lhand -38.139 -17.898
lfingers 7.12502
lthumb -11.1733 11.7845
rfemur -24.7149 -9.35044 26.3691
rtibia 54.701
rfoot -36.4181 10.9199
rtoes -23.2327
lfemur -23.0145 5.08236 -8.33861
ltibia 83.4451
lfoot -13.1821 4.49682
ltoes -20.4953
118
root -25.6386 17.4386 12.1512 -179.296 -233.126 -194.48
lowerback 1.26094 1.03102 9.9987
upperback 6.86061 1.07792 4.56502
thorax 6.63557 1.02664 -0.710544
lowerneck -6.59944 2.42216 0.0286191
upperneck -0.135844 3.40658 -6.26607
head 1.20167 1.61635 -1.8737
rclavicle -4.13472e-014 -7.79236e-014
rhumerus -18.7399 14.4957 -91.4563
rradius 96.2964
rwrist -7.32488
rhand -30.1963 28.2587
rfingers 7.12502
rthumb -3.50707 -1.69221
lclavicle -4.13472e-014 -7.79236e-014
lhumerus -50.9205 -26.9821 106.728
lradius 52.2015
lwrist 10.3146
lhand -38.2383 -17.7253
lfingers 7.12502
lthumb -11.2691 11.952
rfemur -23.2176 -9.13772 26.0315
rtibia 53.6754
rfoot -36.7059 10.2134
rtoes -25.3603
lfemur -25.4103 5.9113 -8.91583
ltibia 84.6736
lfoot -13.9551 3.88222
ltoes -21.0195
119
root -25.4642 17.4622 12.2852 -179.01 -233.206 -194.025
lowerback 1.34513 1.40816 9.78057
upperback 6.75003 1.60925 4.37932
thorax 6.50858 1.27255 -0.767574
lowerneck -6.56903 2.22011 0.0493138
upperneck 0.1826 3.14325 -6.06935
head 1.28501 1.47994 -1.82255
rclavicle 4.01545e-014 1.35174e-014
rhumerus -17.7266 15.2186 -91.3964
rradius 97.0241
rwrist -7.38962
rhand -30.1964 28.112
rfingers 7.12502
rthumb -3.50711 -1.83893
lclavicle 4.01545e-014 1.35174e-014
lhumerus -51.8746 -26.706 106.855
lradius 52.9676
lwrist 11.0844
lhand -38.3977 -17.394
lfingers 7.12502
lthumb -11.4228 12.2748
rfemur -21.7572 -8.81606 25.5932
rtibia 52.5464
rfoot -36.6724 9.69107
rtoes -26.9736
lfemur -27.8136 6.70956 -9.70955
ltibia 85.5939
lfoot -14.7352 3.33932
ltoes -21.7749
120
root -25.2833 17.497 12.4183 -178.745 -233.285 -193.604
lowerback 1.4174 1.75341 9.6084
upperback 6.67646 2.09328 4.15238
thorax 6.42908 1.50196 -0.893548
lowerneck -6.66492 2.04601 0.157563
upperneck 0.511763 2.91297 -5.89517
head 1.39811 1.35828 -1.79281
rclavicle -1.37559e-013 -6.36111e-015
rhumerus -16.7035 15.9794 -91.3466
rradius 97.7763
rwrist -7.47807
rhand -30.0092 27.8319
rfingers 7.12502
rthumb -3.32631 -2.12193
lclavicle -1.37559e-013 -6.36111e-015
lhumerus -52.7306 -26.3901 106.828
lradius 53.8117
lwrist 11.9062
lhand -38.6404 -17.1587
lfingers 7.12502
lthumb -11.6569 12.497
rfemur -20.2234 -8.38273 25.1818
rtibia 51.2725
rfoot -36.452 9.06616
rtoes -28.5986
lfemur -30.196 7.3608 -10.5732
ltibia 86.1913
lfoot -15.5495 2.81261
ltoes -22.7162
121
root -25.0946 17.5431 12.5532 -178.404 -233.363 -193.104
lowerback 1.41048 2.08888 9.3983
upperback 6.63029 2.55375 3.85933
thorax 6.42513 1.72257 -1.06426
lowerneck -6.68429 1.90197 0.401063
upperneck 0.742286 2.70564 -5.75927
head 1.47075 1.25185 -1.79935
rclavicle -3.10104e-014 5.725e-014
rhumerus -15.7359 16.7218 -91.362
rradius 98.5309
rwrist -7.42037
rhand -29.8453 27.4147
rfingers 7.12502
rthumb -3.16802 -2.54155
lclavicle -3.10104e-014 5.725e-014
lhumerus -53.5266 -26.1358 106.669
lradius 54.6773
lwrist 12.8601
lhand -38.9443 -17.1225
lfingers 7.12502
lthumb -11.9499 12.5164
rfemur -18.6138 -7.8191 24.7528
rtibia 49.8584
rfoot -36.1786 8.10932
rtoes -30.6166
lfemur -32.5235 7.85104 -11.5666
ltibia 86.3866
lfoot -16.3158 2.26394
ltoes -23.1823
122
root -24.8978 17.5996 12.6909 -178.118 -233.581 -192.639
lowerback 1.34052 2.34491 9.16634
upperback 6.62455 2.89847 3.59382
thorax 6.48924 1.88791 -1.194
lowerneck -6.67946 1.78635 0.650912
upperneck 0.908149 2.53339 -5.66417
head 1.52038 1.16466 -1.81929
rclavicle -1.09729e-013 -5.56597e-015
rhumerus -14.8337 17.4914 -91.3458
rradius 99.2523
rwrist -7.18926
rhand -29.6556 27.2879
rfingers 7.12502
rthumb -2.98482 -2.671
lclavicle -1.09729e-013 -5.56597e-015
lhumerus -54.0955 -25.7566 106.398
lradius 55.3471
lwrist 13.5144
lhand -39.1344 -17.0841
lfingers 7.12502
lthumb -12.1332 12.544
rfemur -16.8765 -7.41761 24.3497
rtibia 48.2804
rfoot -35.7896 7.27043
rtoes -32.3192
lfemur -34.7413 8.10027 -12.6059
ltibia 86.1743
lfoot -16.9078 1.82265
ltoes -23.5005
